
<svg width="86" height="53" viewBox="0 0 86 53" fill="none" xmlns="http://www.w3.org/2000/svg">
<path opacity="0.15" d="M56.8874 1.82121C54.6337 0.603589 52.0177 0 49.1586 0C44.9549 0 41.7063 1.38888 39.1824 3.69881C36.6585 1.38888 33.4099 0 29.2082 0C26.3513 0 23.7331 0.603589 21.4794 1.82121C8.14772 4.58853 0 14.3232 0 28.0637C0 48.2641 16.1363 51.917 17.0767 52.1676C27.5284 54.9496 29.2878 49.912 29.5769 49.369C30.555 49.8848 34.9368 52.176 39.1824 52.2303C43.428 52.176 47.8097 49.8848 48.7879 49.369C49.0769 49.912 50.8363 54.9496 61.288 52.1676C62.2285 51.917 78.3648 48.2641 78.3648 28.0637C78.3648 14.3211 70.217 4.58853 56.8853 1.82121H56.8874ZM23.0901 50.6263C10.835 50.1898 2.50296 41.0879 2.50296 28.0637C2.50296 17.3516 7.79165 9.44648 16.9594 5.75393C14.5025 9.04339 13.0762 13.7656 13.0762 19.9581C13.0762 31.9484 18.679 42.5206 27.4823 48.1576C27.4823 50.1814 24.284 50.6701 23.0922 50.6263H23.0901ZM28.362 45.9688C20.6709 40.6911 15.577 31.3449 15.577 19.9539C15.577 2.91978 26.7932 2.49163 29.2103 2.49163C32.4987 2.49163 35.2405 3.46072 37.5047 5.49913C32.1385 12.1511 30.8126 23.6068 30.1466 32.8047C29.8135 37.9739 28.362 45.9688 28.362 45.9688ZM39.1824 50.2065C37.6136 50.2065 34.0005 49.2541 30.4691 47.2825C31.6316 43.874 32.1678 38.9889 32.5239 32.9321C33.4057 20.4113 35.5149 12.0676 39.1803 7.33287C42.8457 12.0676 44.9549 20.4113 45.8367 32.9321C46.1928 38.9889 46.729 43.874 47.8914 47.2825C44.3601 49.252 40.747 50.2065 39.1782 50.2065H39.1824ZM48.2203 32.8068C47.5521 23.6089 46.2263 12.1532 40.8622 5.50122C43.1264 3.4628 45.8681 2.49372 49.1565 2.49372C51.5736 2.49372 62.7898 2.92187 62.7898 19.956C62.7898 31.3469 57.6959 40.6932 50.0048 45.9709C50.0048 45.9709 48.5554 37.976 48.2203 32.8068ZM55.2767 50.6263C53.2639 50.6973 50.8866 49.8222 50.8866 48.1576C59.6899 42.5206 65.2928 31.9505 65.2928 19.9581C65.2928 13.7656 63.8643 9.04339 61.4095 5.75393C70.5773 9.44648 75.866 17.3537 75.866 28.0637C75.866 41.0858 67.5318 50.1877 55.2788 50.6263H55.2767Z" fill="#A6F750"/>
<path d="M42.7873 50.9438V52.9916H38.6841C38.5449 52.9958 38.4036 53 38.2645 53C34.8529 53 32.8877 51.2655 32.8877 48.5995C32.8877 45.227 36.2993 43.7805 41.2291 43.4925C43.7446 43.3285 44.9971 42.9437 44.9971 41.8882C44.9971 39.8656 43.1268 38.3518 40.6514 38.3518C40.5544 38.3518 38.2582 38.3644 38.2582 38.3644V36.2661H40.7188C44.025 36.2661 46.3824 37.8998 47.1815 40.57C47.386 41.2701 47.4872 41.9934 47.483 42.7229V50.3677H49.7054V52.6489L45.326 52.6825V50.948H42.7894V48.4271H45.1236V44.5563C44.6702 44.9747 43.1921 45.3301 41.2586 45.4541C37.1343 45.7421 35.4285 46.6736 35.4285 48.4754C35.4285 50.0796 36.6514 50.9501 38.682 50.9501H42.7894V50.9417L42.7873 50.9438Z" fill="#A6F750"/>
<path d="M38.2476 38.3644H36.1433V40.4627H38.2476V38.3644Z" fill="#A6F750"/>
<path d="M36.1454 40.4627H34.0411V42.561H36.1454V40.4627Z" fill="#A6F750"/>
<path d="M67.2406 29.9187V52.6353H64.8654V49.5632C63.5801 51.6448 61.3666 52.9515 58.6407 52.9515C54.0856 52.9515 50.6499 49.3664 50.6499 44.6338C50.6499 39.9012 54.0814 36.3161 58.6407 36.3161C58.8864 36.3161 63.5675 36.3496 63.5675 36.3496V38.651H58.9452C55.7258 38.6803 53.2519 41.2602 53.2519 44.6338C53.2519 48.0073 55.7531 50.6166 58.9956 50.6166C60.8038 50.6312 62.5091 49.7727 63.5717 48.3152C64.2878 47.3163 64.6658 46.1164 64.6532 44.8893V40.9545H63.5717V38.6531H64.7079V29.9187H67.2426H67.2406Z" fill="#A6F750"/>
<path d="M74.4698 45.7093H72.1528V48.0197H74.4698V45.7093Z" fill="#A6F750"/>
<path d="M85.9998 52.6446L81.621 52.6782V49.5942C80.3645 51.6502 77.628 52.9998 74.5668 52.9998C73.9891 53.004 73.4136 52.9473 72.8486 52.8317C70.9469 52.407 69.5997 50.7168 69.6124 48.7744V48.0218H72.1528V49.3125C72.1528 49.7645 72.3826 50.1829 72.7642 50.4246C73.3145 50.7673 74.0671 50.946 74.9863 50.946C78.3638 50.946 81.1087 48.5978 81.4017 45.7093H74.4698L74.4698 43.399H78.6315C80.2169 43.399 81.0244 42.8965 81.2457 42.2406C81.2837 42.1271 81.3027 42.0052 81.3005 41.8854C81.3005 41.6899 81.2837 41.4922 81.2457 41.3009C81.0982 40.542 80.6849 39.863 80.0799 39.3795C79.304 38.7362 78.2056 38.3515 76.9533 38.3515C74.3749 38.3515 72.6082 39.7642 72.1549 42.1418H69.741C70.2913 38.5155 73.0594 36.2661 77.0208 36.2661C80.4994 36.2661 82.9218 38.0719 83.5964 40.9919C83.6702 41.3199 83.7229 41.652 83.7524 41.9863C83.7735 42.2238 83.7862 42.4719 83.7862 42.722V50.3657H85.9998V52.6446Z" fill="#A6F750"/>
<g clip-path="url(#clip0_409_558)">
<g opacity="0.15">
<path d="M85.2402 48.989H85.2846V49.2245H85.6096V48.989H85.654V49.5001H85.6096V49.2645H85.2846V49.5001H85.2402V48.989Z" fill="#A6F750"/>
<path d="M85.4476 49.7956C85.1412 49.7956 84.8936 49.5486 84.8936 49.2446C84.8936 48.9405 85.1412 48.6921 85.4476 48.6921C85.7539 48.6921 86.0016 48.9391 86.0016 49.2446C86.0016 49.5501 85.7539 49.797 85.4476 49.797V49.7956ZM85.4476 48.7421C85.1699 48.7421 84.9437 48.9676 84.9437 49.2446C84.9437 49.5215 85.1699 49.7456 85.4461 49.7456C85.7224 49.7456 85.9486 49.5201 85.9486 49.2446C85.9486 48.9691 85.7239 48.7421 85.4476 48.7421Z" fill="#A6F750"/>
</g>
</g>
<defs>
<clipPath id="clip0_409_558">
<rect width="1.10661" height="1.10345" fill="white" transform="translate(84.8936 48.6921)"/>
</clipPath>
</defs>
</svg>
